<svg width="40" height="33" fill="none" xmlns="http://www.w3.org/2000/svg"><path d="M40 3.848a17.097 17.097 0 0 1-4.725 1.295A8.154 8.154 0 0 0 38.883.61a16.388 16.388 0 0 1-5.2 1.985A8.217 8.217 0 0 0 27.692 0c-4.54 0-8.196 3.685-8.196 8.203 0 .65.055 1.274.19 1.87-6.817-.333-12.85-3.6-16.902-8.578A8.256 8.256 0 0 0 1.662 5.64a8.212 8.212 0 0 0 3.643 6.815 8.098 8.098 0 0 1-3.705-1.01v.09c0 3.985 2.842 7.295 6.57 8.058a8.185 8.185 0 0 1-2.15.27c-.525 0-1.055-.03-1.552-.14 1.062 3.247 4.077 5.635 7.662 5.712a16.477 16.477 0 0 1-10.168 3.498c-.672 0-1.317-.03-1.962-.113 3.632 2.343 7.938 3.68 12.58 3.68 15.09 0 23.34-12.5 23.34-23.335 0-.362-.013-.712-.03-1.06C37.517 6.95 38.885 5.507 40 3.847Z" fill="#fff"/></svg>