<svg width="167" height="272" fill="none" xmlns="http://www.w3.org/2000/svg"><path d="M93.595 207.021c-23.664.235-40.052 17.294-58.167 30.136a242.9 242.9 0 0 0 23.684-45.203l.542.316c-.861.523-.546 2.033.517 1.97 30.18-1.942 55.513-32.328 65.623-58.187.911-2.29-2.22-3.521-3.826-2.237-11.739 9.985-25.601 14.966-37.813 24.075-9.042 6.687-15.766 17.166-21.973 26.835.559-1.469 1.136-2.97 1.696-4.439.559-1.469 1.305-3.769 1.941-5.663a.813.813 0 0 0 .325-.922c3.71-10.958 6.75-22.307 9.759-33.675 10.794 3.488 23.684-5.098 32.53-10.06 13.516-7.535 24.067-17.829 28.495-32.942.639-2.192-2.514-4.335-4.081-2.386-14.174 17.37-39.128 18.86-54.146 34.966a297.163 297.163 0 0 1 11.575-35.392 63.739 63.739 0 0 0 36.773-5.305A63.695 63.695 0 0 0 154.605 64c1.136-1.944-1.419-4.89-3.275-3.325-10.462 7.653-22.903 9.104-35.201 11.92a61.25 61.25 0 0 0-18.658 6.454 112.076 112.076 0 0 1 15.202-21.472 2.114 2.114 0 0 0 1.504.906 2.101 2.101 0 0 0 1.667-.549c10.656-8.351 21.73-12.952 30.748-23.33a167.05 167.05 0 0 0 19.602-30.316c1.359-2.327-1.884-5.12-3.842-3.015-11.954 12.766-30.453 15.507-42.266 28.399-5.373 5.753-12.9 17.387-8.958 25.72A93.454 93.454 0 0 0 85.232 92.89a493.696 493.696 0 0 0-2.036-63.7c-.233-2.53-4.431-3.617-4.84-.65-3.102 23.457-24.11 58.595 2.52 75.828-5.716 17.096-9.462 35.216-14.44 51.418l-.832 2.593A193.999 193.999 0 0 0 57.3 130.65a169.326 169.326 0 0 0-13.384-34.332 2.513 2.513 0 0 0-4.096-.257 2.51 2.51 0 0 0-.551 1.474c.324 15.326-3.96 33.559.167 48.456 3.068 11.071 12.06 19.619 21.438 26.042a286 286 0 0 1-18.56 42.512l-.708 1.211a93.715 93.715 0 0 0-16.356-53.472 2.368 2.368 0 0 0-2.9-.949 2.364 2.364 0 0 0-1.418 2.701c3.708 20.296-7.807 48.925 15.238 60.728A266.618 266.618 0 0 1 .612 267.302c-1.684 1.71.488 4.946 2.586 3.479a121.805 121.805 0 0 0 24.81-23.637c25.395 12.833 53.405-18.768 67.142-36.05a2.472 2.472 0 0 0-.34-3.562 2.472 2.472 0 0 0-1.215-.511Zm.93-50.038a265.425 265.425 0 0 0 23.128-14.102 93.09 93.09 0 0 1-22.166 28.775c-9.768 8.442-20.536 12.667-31.501 18.4 9.367-12.44 16.584-25.153 30.538-33.073ZM79.367 45.252c.972 18.098 1.005 36.118.583 54.257-14.519-14.387-6.342-35.476-.583-54.257Zm45.472-13.613a66.798 66.798 0 0 1 16.639-10.755c4.879-2.493 9.633-4.845 14.039-7.7a113.11 113.11 0 0 1-15.712 21.174c-7.823 8.04-19.289 11.558-26.362 19.78-2.588-6.258 8.356-19.786 11.364-22.517l.032.018ZM93.811 86.19c.196.067.404.087.609.056l.803-.129a.739.739 0 0 0 .372-.637c1.81-.61 4.662-2.706 2.864-2.046 3.443-1.28 6.581-3.209 10.114-4.35a138.58 138.58 0 0 1 15.855-3.56 104.708 104.708 0 0 0 19.325-5.251 58.342 58.342 0 0 1-23.317 15.839 58.387 58.387 0 0 1-28.028 3.063c.464-1.012.927-2.024 1.403-2.985Zm-16.573 48.846a1.244 1.244 0 0 0 1.135-.405c13.13-14.559 33.705-17.412 49.049-28.368a56.095 56.095 0 0 1-19.49 18.196c-7.156 4.411-21.773 13.098-30.694 10.577Zm-34.258 2.039c-.228-9.711.736-19.409 1.178-29.241a222.563 222.563 0 0 1 8.437 23.915c3.495 11.364 9.183 23.882 8.513 35.932-.011.265.022.53.098.784-9.183-8.66-17.92-17.571-18.226-31.39Zm-17.912 54.649c.249-6.354 1.05-12.555 1.142-18.787a89.865 89.865 0 0 1 10.553 47.813 36.092 36.092 0 0 1-11.695-29.026Zm7.984 53.452c18.183-11.349 33.535-29.783 55.349-32.853-13.243 16.289-33.971 37.994-55.368 32.884l.019-.031Z" fill="#fff"/></svg>